<?xml version="1.0" encoding="UTF-8" standalone="no"?>
<!-- Created with Inkscape (http://www.inkscape.org/) -->

<svg
   width="800"
   height="800"
   viewBox="0 0 211.66666 211.66667"
   version="1.1"
   id="svg1"
   xml:space="preserve"
   inkscape:version="1.4 (e7c3feb100, 2024-10-09)"
   sodipodi:docname="nanasi-logo.svg"
   inkscape:export-filename="nanasi-logo.png"
   inkscape:export-xdpi="96"
   inkscape:export-ydpi="96"
   xmlns:inkscape="http://www.inkscape.org/namespaces/inkscape"
   xmlns:sodipodi="http://sodipodi.sourceforge.net/DTD/sodipodi-0.dtd"
   xmlns="http://www.w3.org/2000/svg"
   xmlns:svg="http://www.w3.org/2000/svg"
   xmlns:rdf="http://www.w3.org/1999/02/22-rdf-syntax-ns#"
   xmlns:cc="http://creativecommons.org/ns#"
   xmlns:dc="http://purl.org/dc/elements/1.1/"><title
     id="title28">Nanasi Logo</title><sodipodi:namedview
     id="namedview1"
     pagecolor="#ffffff"
     bordercolor="#000000"
     borderopacity="0.25"
     inkscape:showpageshadow="2"
     inkscape:pageopacity="0.0"
     inkscape:pagecheckerboard="0"
     inkscape:deskcolor="#d1d1d1"
     inkscape:document-units="px"
     inkscape:zoom="0.98447763"
     inkscape:cx="610.47603"
     inkscape:cy="349.93177"
     inkscape:window-width="1920"
     inkscape:window-height="1057"
     inkscape:window-x="0"
     inkscape:window-y="0"
     inkscape:window-maximized="1"
     inkscape:current-layer="g3"
     showgrid="false"><inkscape:grid
       id="grid25"
       units="px"
       originx="0"
       originy="0"
       spacingx="0.26458333"
       spacingy="0.26458334"
       empcolor="#0099e5"
       empopacity="0.30196078"
       color="#0099e5"
       opacity="0.14901961"
       empspacing="5"
       enabled="true"
       visible="false" /><sodipodi:guide
       position="0,211.66666"
       orientation="0,800"
       id="guide25"
       inkscape:locked="false" /><sodipodi:guide
       position="211.66666,211.66666"
       orientation="800,0"
       id="guide26"
       inkscape:locked="false" /><sodipodi:guide
       position="211.66666,0"
       orientation="0,-800"
       id="guide27"
       inkscape:locked="false" /><sodipodi:guide
       position="0,0"
       orientation="-800,0"
       id="guide28"
       inkscape:locked="false" /></sodipodi:namedview><defs
     id="defs1"><rect
       x="204.16919"
       y="575.93995"
       width="369.73923"
       height="92.434807"
       id="rect1" /><rect
       x="215.16469"
       y="837.29802"
       width="332.22405"
       height="57.943714"
       id="rect28" /><inkscape:path-effect
       effect="bspline"
       id="path-effect25"
       is_visible="true"
       lpeversion="1.3"
       weight="33.333333"
       steps="2"
       helper_size="0"
       apply_no_weight="true"
       apply_with_weight="true"
       only_selected="false"
       uniform="false" /><inkscape:path-effect
       effect="bspline"
       id="path-effect8"
       is_visible="true"
       lpeversion="1.3"
       weight="33.333333"
       steps="2"
       helper_size="0"
       apply_no_weight="true"
       apply_with_weight="true"
       only_selected="false"
       uniform="false" /><inkscape:path-effect
       effect="bspline"
       id="path-effect4"
       is_visible="true"
       lpeversion="1.3"
       weight="33.333333"
       steps="2"
       helper_size="0"
       apply_no_weight="true"
       apply_with_weight="true"
       only_selected="false"
       uniform="false" /><inkscape:path-effect
       effect="bspline"
       id="path-effect1"
       is_visible="true"
       lpeversion="1.3"
       weight="33.333333"
       steps="2"
       helper_size="0"
       apply_no_weight="true"
       apply_with_weight="true"
       only_selected="false"
       uniform="false" /><inkscape:path-effect
       effect="fill_between_many"
       method="originald"
       linkedpaths="#path8,0,1|"
       id="path-effect10" /><inkscape:path-effect
       effect="fill_between_many"
       method="originald"
       linkedpaths="#path8,0,1|"
       id="path-effect11" /></defs><g
     inkscape:groupmode="layer"
     id="layer2"
     inkscape:label="Outline"><g
       id="g28"
       inkscape:label="Logo-Graphic"
       sodipodi:insensitive="true"><path
         style="fill:#81905c;fill-opacity:1;fill-rule:evenodd;stroke:none;stroke-width:0.529167;stroke-dasharray:none;stroke-opacity:1"
         d="m 626.51653,176.84625 c 0.0224,-0.0497 0.0673,-0.1493 0.17276,-0.13713 0.10547,0.0122 0.27155,0.13602 0.44889,0.29084 0.17734,0.15482 0.36595,0.34061 0.53344,0.51655 0.16748,0.17593 0.31385,0.342 0.45601,0.49683 0.14216,0.15482 0.28008,0.29838 0.42505,0.44616 0.14497,0.14778 0.29698,0.29978 0.44899,0.45743 0.15201,0.15764 0.30401,0.3209 0.43443,0.48589 0.13041,0.165 0.23923,0.33172 0.32559,0.4779 0.0864,0.14619 0.15027,0.27183 0.21522,0.39173 0.065,0.1199 0.13094,0.23403 0.2094,0.35797 0.0785,0.12393 0.16943,0.2577 0.23988,0.36918 0.0704,0.11147 0.12039,0.20064 0.17835,0.33351 0.058,0.13286 0.12394,0.30941 0.18101,0.48507 0.0571,0.17567 0.10521,0.35046 0.16227,0.52256 0.0571,0.1721 0.12305,0.34152 0.1828,0.49935 0.0598,0.15784 0.11326,0.30408 0.17033,0.49669 0.0571,0.19261 0.11771,0.43159 0.17299,0.62599 0.0553,0.19439 0.10522,0.34421 0.13732,0.46461 0.0321,0.1204 0.0464,0.2113 0.0624,0.3192 0.016,0.10789 0.0339,0.23274 0.0481,0.37632 0.0143,0.14357 0.025,0.30585 0.033,0.47527 0.008,0.16942 0.0134,0.34599 0.0205,0.66166 0.007,0.31567 0.0161,0.77044 0.0125,1.35274 -0.004,0.5823 -0.0196,1.29209 -0.0508,1.89222 -0.0312,0.60013 -0.0776,1.09056 -0.12038,1.42227 -0.0428,0.33172 -0.082,0.50472 -0.12306,0.76422 -0.041,0.25949 -0.0838,0.60546 -0.14624,0.90151 -0.0624,0.29605 -0.14446,0.54217 -0.22382,0.73033 -0.0794,0.18815 -0.15605,0.31833 -0.22471,0.45476 -0.0687,0.13642 -0.1293,0.27911 -0.16046,0.42179 -0.0312,0.14269 -0.0328,0.28535 -0.0515,0.43784 -0.0187,0.15249 -0.0543,0.31475 -0.0534,0.45921 8.9e-4,0.14446 0.0383,0.27109 0.0687,0.35673 0.0303,0.0856 0.0535,0.13021 0.0882,0.17744 0.0348,0.0472 0.0811,0.0972 0.13017,0.14888 0.049,0.0517 0.10077,0.10524 0.14625,0.14447 0.0455,0.0392 0.0847,0.0642 0.12931,0.0785 0.0446,0.0143 0.0944,0.0178 0.15155,0.0125 0.0571,-0.005 0.1213,-0.0196 0.19285,-0.0538 0.0715,-0.0342 0.15042,-0.0883 0.2281,-0.16648 0.0777,-0.0782 0.15413,-0.18056 0.45801,-0.50486 0.30387,-0.3243 0.83513,-0.87051 1.21313,-1.27115 0.378,-0.40064 0.60271,-0.65566 0.8408,-0.89643 0.23808,-0.24077 0.48954,-0.46726 0.81592,-0.74905 0.32638,-0.28179 0.72764,-0.61884 1.07184,-0.87476 0.3442,-0.25592 0.63132,-0.43069 0.88013,-0.57962 0.2488,-0.14892 0.45922,-0.27197 0.92382,-0.51095 0.46459,-0.23899 1.1833,-0.59389 1.75489,-0.83019 0.5716,-0.23631 0.99604,-0.35401 1.47757,-0.46815 0.48153,-0.11413 1.02012,-0.22471 1.38304,-0.28356 0.36292,-0.0589 0.55021,-0.066 0.74104,-0.0767 0.19083,-0.0107 0.38522,-0.025 0.55999,-0.041 0.17477,-0.0161 0.32992,-0.0339 0.44406,-0.0366 0.11414,-0.003 0.18727,0.01 0.24078,0.0286 0.0535,0.0187 0.0874,0.0437 0.10701,0.0767 0.0196,0.033 0.025,0.074 0.0196,0.11059 -0.005,0.0366 -0.0214,0.0687 -0.10881,0.11237 -0.0874,0.0437 -0.24612,0.099 -0.45567,0.18994 -0.20955,0.091 -0.46992,0.21758 -0.72586,0.40324 -0.25593,0.18566 -0.50741,0.43035 -0.76781,0.63915 -0.2604,0.2088 -0.52969,0.38168 -0.90002,0.62067 -0.37033,0.23899 -0.84162,0.54404 -1.21664,0.79132 -0.37501,0.24727 -0.65371,0.43675 -0.8607,0.6045 -0.20699,0.16775 -0.34226,0.31375 -0.70201,0.68342 -0.35976,0.36967 -0.94396,0.96296 -1.37429,1.43975 -0.43034,0.47679 -0.70677,0.83704 -0.92703,1.1964 -0.22026,0.35937 -0.38433,0.71782 -0.54662,1.04687 -0.1623,0.32905 -0.3228,0.62866 -0.48242,1.00586 -0.15962,0.3772 -0.31834,0.83197 -0.42445,1.16636 -0.10612,0.3344 -0.15962,0.54841 -0.20155,0.68931 -0.0419,0.14089 -0.0722,0.20863 -0.10167,0.30494 -0.0294,0.0963 -0.058,0.22117 -0.22946,0.43971 -0.17149,0.21854 -0.48593,0.53079 -0.79471,0.80295 -0.30878,0.27216 -0.61189,0.50422 -0.95047,0.72708 -0.33858,0.22286 -0.7126,0.43649 -1.03783,0.61911 -0.32524,0.18262 -0.60167,0.33421 -0.85849,0.47957 -0.25681,0.14535 -0.49399,0.28445 -0.7196,0.40304 -0.22561,0.1186 -0.43961,0.21669 -0.69733,0.32013 -0.25771,0.10344 -0.5591,0.21223 -0.98,0.31299 -0.42089,0.10077 -0.96125,0.1935 -1.33934,0.23719 -0.37808,0.0437 -0.59389,0.0383 -0.83466,0.0329 -0.24076,-0.005 -0.50649,-0.0107 -0.81056,-0.0384 -0.30408,-0.0276 -0.6465,-0.0776 -0.90153,-0.13822 -0.25502,-0.0606 -0.42267,-0.13198 -0.61439,-0.22204 -0.19172,-0.0901 -0.40751,-0.19885 -0.72586,-0.40752 -0.31835,-0.20866 -0.73922,-0.51719 -1.01298,-0.72675 -0.27376,-0.20956 -0.40039,-0.32013 -0.55554,-0.48599 -0.15516,-0.16585 -0.33886,-0.387 -0.49313,-0.56712 -0.15427,-0.18012 -0.2791,-0.31923 -0.4307,-0.60815 -0.15159,-0.28893 -0.32992,-0.72764 -0.49222,-1.14854 -0.16229,-0.42089 -0.30853,-0.82394 -0.42445,-1.28318 -0.11593,-0.45924 -0.20153,-0.97464 -0.25593,-1.3349 -0.0544,-0.36026 -0.0776,-0.56534 -0.10257,-0.78738 -0.025,-0.22204 -0.0517,-0.46101 -0.14354,-0.82662 -0.0918,-0.36561 -0.24878,-0.85784 -0.48598,-1.32777 -0.2372,-0.46993 -0.55466,-0.91757 -0.81236,-1.22343 -0.25771,-0.30586 -0.45567,-0.46993 -0.6349,-0.61706 -0.17923,-0.14714 -0.33975,-0.27733 -0.46548,-0.3772 -0.12573,-0.0999 -0.21669,-0.16944 -0.2916,-0.23097 -0.0749,-0.0615 -0.13375,-0.11502 -0.20152,-0.15961 -0.0678,-0.0446 -0.14444,-0.0802 -0.22115,-0.11591 -0.0767,-0.0357 -0.15336,-0.0713 -0.22471,-0.0963 -0.0714,-0.025 -0.13731,-0.0392 -0.17116,-0.0527 -0.0338,-0.0135 -0.0355,-0.0259 0.10991,-0.0214 0.14541,0.004 0.43791,0.0259 0.72415,0.0509 0.28624,0.025 0.56622,0.0535 0.83285,0.0918 0.26663,0.0383 0.51987,0.0865 0.75797,0.14177 0.23809,0.0553 0.46101,0.11771 0.69821,0.18191 0.2372,0.0642 0.48866,0.13019 0.81414,0.24344 0.32547,0.11325 0.72497,0.27376 1.04599,0.44408 0.32101,0.17032 0.56356,0.35044 0.79718,0.53592 0.23363,0.18548 0.45834,0.37631 0.63936,0.53146 0.18101,0.15516 0.31835,0.27466 0.45835,0.4316 0.13999,0.15694 0.28267,0.35134 0.41821,0.55375 0.13554,0.20242 0.26394,0.41286 0.40216,0.56178 0.13822,0.14892 0.28624,0.23631 0.41732,0.27917 0.13108,0.0428 0.24523,0.0412 0.3781,-0.056 0.13286,-0.0971 0.28445,-0.28973 0.3549,-0.59649 0.0705,-0.30677 0.0598,-0.72764 0.0205,-1.4116 -0.0392,-0.68395 -0.107,-1.63094 -0.14624,-2.66088 -0.0392,-1.02994 -0.0499,-2.14278 -0.0571,-3.17183 -0.007,-1.02905 -0.0108,-1.97425 0.0177,-2.67425 0.0285,-0.70001 0.0892,-1.15477 0.18546,-1.76917 0.0963,-0.6144 0.22828,-1.3884 0.34152,-2.0554 0.11325,-0.66701 0.20777,-1.227 0.32726,-1.7228 0.11949,-0.4958 0.26395,-0.92738 0.38344,-1.24929 0.11949,-0.3219 0.21401,-0.53414 0.30697,-0.70638 0.0929,-0.17224 0.18433,-0.30448 0.23003,-0.3706 0.0457,-0.0661 0.0452,-0.0664 0.0676,-0.11611 z"
         id="path4"
         inkscape:path-effect="#path-effect4"
         inkscape:original-d="m 626.49411,176.89599 c 0.0448,-0.0995 0.0897,-0.19904 0.13457,-0.29856 0.16608,0.12386 0.33216,0.24771 0.49824,0.37157 0.18859,0.18579 0.37721,0.37157 0.56581,0.55736 0.14637,0.16608 0.29273,0.33216 0.43913,0.49824 0.13793,0.14356 0.27585,0.28712 0.41378,0.43068 0.152,0.15201 0.30401,0.30401 0.45604,0.45602 0.152,0.16327 0.304,0.32653 0.45601,0.4898 0.10882,0.16672 0.21764,0.33344 0.32646,0.50016 0.0639,0.12565 0.1278,0.25129 0.19172,0.37694 0.066,0.11414 0.13198,0.22828 0.19796,0.34242 0.0909,0.13376 0.1819,0.26751 0.27287,0.40127 0.0499,0.0892 0.0999,0.17834 0.14981,0.26751 0.066,0.17657 0.13197,0.35312 0.19796,0.52968 0.0481,0.17478 0.0963,0.34956 0.14443,0.52433 0.066,0.16943 0.13198,0.33885 0.19796,0.50828 0.0535,0.14624 0.10703,0.29248 0.16053,0.43872 0.0606,0.23899 0.12128,0.47796 0.1819,0.71694 0.0499,0.14982 0.0999,0.29962 0.1498,0.44943 0.0143,0.091 0.0285,0.18191 0.0428,0.27286 0.0177,0.12485 0.0357,0.24968 0.0535,0.37452 0.0109,0.1623 0.0214,0.32459 0.0321,0.48688 0.005,0.17656 0.0106,0.35312 0.0161,0.52968 0.009,0.45478 0.0177,0.90955 0.0268,1.36433 -0.0161,0.70982 -0.0321,1.41961 -0.0482,2.12941 -0.0464,0.49046 -0.0927,0.98089 -0.13909,1.47133 -0.0392,0.173 -0.0785,0.34599 -0.11772,0.51898 -0.0428,0.346 -0.0856,0.69197 -0.1284,1.03796 -0.082,0.24612 -0.16409,0.49223 -0.24611,0.73834 -0.0767,0.13019 -0.15338,0.26038 -0.23006,0.39057 -0.0606,0.14268 -0.12128,0.28535 -0.18193,0.42803 -0.003,0.14267 -0.004,0.28534 -0.005,0.42802 -0.0357,0.1623 -0.0713,0.32458 -0.107,0.48688 0.0374,0.12662 0.0749,0.25324 0.11235,0.37987 0.0233,0.0446 0.0464,0.0892 0.0695,0.13375 0.0464,0.0499 0.0927,0.0999 0.13912,0.14981 0.0517,0.0535 0.10343,0.10701 0.15515,0.16051 0.0392,0.025 0.0785,0.0499 0.11772,0.0749 0.0499,0.004 0.0998,0.007 0.1498,0.0107 0.0642,-0.0143 0.12841,-0.0285 0.19259,-0.0428 0.0789,-0.0541 0.15778,-0.10817 0.23666,-0.16226 0.0765,-0.10235 0.15293,-0.2047 0.22939,-0.30705 0.53129,-0.54625 1.06255,-1.09246 1.59384,-1.6387 0.22471,-0.25504 0.44942,-0.51006 0.67413,-0.7651 0.25146,-0.2265 0.50292,-0.45299 0.75438,-0.67948 0.4013,-0.33708 0.80256,-0.67414 1.20383,-1.01121 0.28713,-0.17478 0.57425,-0.34955 0.86141,-0.52433 0.21045,-0.12306 0.42087,-0.24611 0.63132,-0.36917 0.71874,-0.35491 1.43745,-0.7098 2.15617,-1.06471 0.42447,-0.1177 0.84891,-0.23541 1.27336,-0.35311 0.53861,-0.11058 1.0772,-0.22115 1.61581,-0.33172 0.18724,-0.007 0.37452,-0.0143 0.56176,-0.0214 0.19442,-0.0143 0.38881,-0.0285 0.5832,-0.0428 0.15515,-0.0178 0.3103,-0.0357 0.46548,-0.0535 0.0731,0.0125 0.14623,0.025 0.21934,0.0375 0.0339,0.025 0.0678,0.0499 0.10168,0.0749 0.005,0.041 0.0106,0.082 0.0161,0.12306 -0.0161,0.0321 -0.0321,0.0642 -0.0482,0.0963 -0.15872,0.0553 -0.31745,0.11058 -0.47617,0.16586 -0.26038,0.12663 -0.52075,0.25325 -0.78113,0.37987 -0.25149,0.2447 -0.50297,0.48939 -0.75446,0.73409 -0.26931,0.1729 -0.5386,0.34578 -0.80791,0.51868 -0.47135,0.30508 -0.94264,0.61013 -1.41397,0.9152 -0.2787,0.18949 -0.5574,0.37897 -0.83611,0.56845 -0.13527,0.14601 -0.27054,0.29201 -0.40581,0.43803 -0.58424,0.59332 -1.16844,1.18661 -1.75267,1.77993 -0.27644,0.36026 -0.55287,0.72051 -0.82931,1.08076 -0.16407,0.35848 -0.32814,0.71694 -0.49223,1.07541 -0.1605,0.29962 -0.32102,0.59923 -0.48152,0.89885 -0.15872,0.45478 -0.31744,0.90955 -0.47617,1.36432 -0.0535,0.21402 -0.10702,0.42803 -0.16052,0.64204 -0.0303,0.0678 -0.0606,0.13554 -0.091,0.20331 -0.0285,0.12484 -0.0571,0.24968 -0.0856,0.37452 -0.31444,0.31225 -0.62888,0.6245 -0.94333,0.93675 -0.30311,0.23207 -0.60622,0.46413 -0.90934,0.69621 -0.37404,0.21364 -0.74806,0.42727 -1.12209,0.64091 -0.27644,0.1516 -0.55287,0.30319 -0.82928,0.45478 -0.23723,0.13911 -0.4744,0.27822 -0.7116,0.41732 -0.21402,0.0981 -0.42802,0.19618 -0.64204,0.29427 -0.30141,0.10879 -0.6028,0.21758 -0.90421,0.32637 -0.54039,0.0927 -1.08074,0.18547 -1.62113,0.27821 -0.21579,-0.005 -0.43159,-0.0107 -0.64738,-0.0161 -0.26575,-0.005 -0.53147,-0.0107 -0.79719,-0.0161 -0.34243,-0.0499 -0.68485,-0.0999 -1.02727,-0.1498 -0.16764,-0.0713 -0.33528,-0.14268 -0.50292,-0.21402 -0.2158,-0.10879 -0.43159,-0.21758 -0.64739,-0.32636 -0.42089,-0.30855 -0.84177,-0.61707 -1.26267,-0.92561 -0.12663,-0.11057 -0.25326,-0.22114 -0.37986,-0.33172 -0.1837,-0.22114 -0.3674,-0.44229 -0.5511,-0.66343 -0.12483,-0.13911 -0.24966,-0.27822 -0.37452,-0.41732 -0.17833,-0.43874 -0.35668,-0.87745 -0.53501,-1.31618 -0.14626,-0.40306 -0.2925,-0.80611 -0.43873,-1.20916 -0.0856,-0.51543 -0.17122,-1.03083 -0.25681,-1.54624 -0.0233,-0.2051 -0.0464,-0.41019 -0.0696,-0.61528 -0.0267,-0.23899 -0.0535,-0.47796 -0.0802,-0.71694 -0.15696,-0.49224 -0.31391,-0.98446 -0.47083,-1.47668 -0.31747,-0.44765 -0.63492,-0.89529 -0.95237,-1.34293 -0.19796,-0.16408 -0.39592,-0.32815 -0.59388,-0.49223 -0.1605,-0.13019 -0.32102,-0.26038 -0.48152,-0.39057 -0.091,-0.0695 -0.18193,-0.1391 -0.27286,-0.20866 -0.0589,-0.0535 -0.11772,-0.10701 -0.17656,-0.16051 -0.0767,-0.0357 -0.15338,-0.0713 -0.23008,-0.107 -0.0767,-0.0357 -0.15338,-0.0713 -0.23006,-0.10701 -0.066,-0.0143 -0.13197,-0.0285 -0.19796,-0.0428 -0.003,-0.0125 -0.004,-0.025 -0.005,-0.0375 0.29247,0.0214 0.58497,0.0428 0.87744,0.0642 0.28001,0.0285 0.55999,0.0571 0.84,0.0856 0.25326,0.0481 0.50649,0.0963 0.75975,0.14445 0.22294,0.0624 0.44585,0.12484 0.66879,0.18726 0.25146,0.066 0.50292,0.13198 0.75438,0.19796 0.39949,0.16052 0.79899,0.32102 1.19848,0.48153 0.24254,0.18013 0.48509,0.36025 0.72763,0.54038 0.22471,0.19083 0.44942,0.38166 0.67413,0.57248 0.13732,0.11949 0.27467,0.23898 0.41198,0.35847 0.14267,0.1944 0.28536,0.38879 0.42802,0.58319 0.1284,0.21044 0.25681,0.42088 0.38523,0.63133 0.14801,0.0874 0.29605,0.17477 0.44405,0.26216 0.11415,-0.002 0.22829,-0.004 0.34243,-0.005 0.1516,-0.19262 0.30318,-0.38522 0.45479,-0.57783 -0.0109,-0.4209 -0.0214,-0.84178 -0.0321,-1.26267 -0.0678,-0.94702 -0.13552,-1.89401 -0.20331,-2.84101 -0.0106,-1.11288 -0.0214,-2.22572 -0.0321,-3.33858 -0.004,-0.94524 -0.007,-1.89044 -0.0109,-2.83566 0.0607,-0.45478 0.12129,-0.90955 0.18193,-1.36433 0.13197,-0.77402 0.26395,-1.54802 0.39592,-2.32202 0.0945,-0.56001 0.18905,-1.12 0.28356,-1.68 0.14446,-0.4316 0.28892,-0.86318 0.43338,-1.29477 0.0945,-0.21223 0.18905,-0.42446 0.28356,-0.63668 0.0914,-0.13225 0.18277,-0.2645 0.27416,-0.39675 z"
         transform="matrix(2.3215822,0,0,2.1543355,-1357.5457,-365.06548)"
         sodipodi:nodetypes="cccccccccccccccccccccccccccccccccccccccccccccccccccccccccccccccccccccccccccccccccccccccccccccccccccccscccccccccccccccccccccccccccc" /><path
         style="fill:#fdcf1a;fill-opacity:1;fill-rule:evenodd;stroke:none;stroke-width:0.264583;stroke-dasharray:none;stroke-dashoffset:0;stroke-opacity:1"
         d="m 619.76517,207.47335 c 0.0545,-0.15154 0.16364,-0.45461 0.34549,-0.65464 0.18184,-0.20002 0.43641,-0.297 0.70311,-0.35761 0.2667,-0.0606 0.54552,-0.0848 0.78797,-0.0848 0.24245,0 0.44854,0.0242 0.8183,0.0848 0.36975,0.0606 0.90312,0.15758 1.45471,0.19395 0.55159,0.0364 1.12135,0.0121 1.86083,-0.0303 0.73948,-0.0424 1.64867,-0.10304 2.3821,-0.18789 0.73342,-0.0849 1.29106,-0.19397 1.99419,-0.32126 0.70313,-0.12729 1.5517,-0.27276 2.27906,-0.41217 0.72737,-0.13942 1.33348,-0.27276 1.89719,-0.36368 0.56371,-0.0909 1.08496,-0.13941 1.60019,-0.16365 0.51522,-0.0242 1.02435,-0.0242 1.51533,0.0303 0.49097,0.0545 0.96376,0.16366 1.33956,0.2667 0.3758,0.10305 0.65462,0.20003 1.0183,0.38793 0.36368,0.18791 0.8122,0.46672 1.16983,0.68493 0.35762,0.21821 0.62432,0.3758 0.93952,0.57583 0.31519,0.20003 0.67886,0.44248 0.95162,0.74555 0.27276,0.30306 0.4546,0.66673 0.61219,1.03041 0.1576,0.36369 0.29095,0.72737 0.44249,1.22441 0.15153,0.49703 0.32125,1.12739 0.41216,1.70323 0.0909,0.57583 0.10301,1.09709 0.0969,1.95781 -0.006,0.86072 -0.0303,2.06084 -0.12121,3.09127 -0.0909,1.03044 -0.24851,1.89113 -0.43641,2.74579 -0.18791,0.85466 -0.40612,1.70323 -0.64857,2.56394 -0.24246,0.86072 -0.50914,1.73354 -0.84858,2.70942 -0.33944,0.97589 -0.7516,2.05478 -1.18802,3.05491 -0.43643,1.00013 -0.89707,1.92144 -1.37592,2.86096 -0.47885,0.93951 -0.97587,1.89718 -1.47897,2.79427 -0.50309,0.89708 -1.01224,1.73353 -1.57595,2.48514 -0.56371,0.75162 -1.18195,1.41834 -1.7699,2.00024 -0.58796,0.58189 -1.14559,1.07892 -1.8669,1.5517 -0.72131,0.47279 -1.60624,0.92132 -2.35786,1.16983 -0.75161,0.24851 -1.36986,0.29701 -1.92751,0.2667 -0.55765,-0.0303 -1.05467,-0.13942 -1.45472,-0.26064 -0.40005,-0.12123 -0.7031,-0.25458 -0.99405,-0.45461 -0.29094,-0.20003 -0.56976,-0.46672 -0.82434,-0.72129 -0.25457,-0.25457 -0.48491,-0.49703 -0.73342,-0.83041 -0.24851,-0.33337 -0.51521,-0.75766 -0.75767,-1.21832 -0.24245,-0.46066 -0.46066,-0.95768 -0.63644,-1.36986 -0.17578,-0.41218 -0.30912,-0.73948 -0.39397,-0.988 -0.0849,-0.24852 -0.12123,-0.41824 -0.14548,-0.59402 -0.0243,-0.17577 -0.0364,-0.35761 -0.0546,-0.50915 -0.0182,-0.15153 -0.0424,-0.27276 0.0243,-0.23032 0.0667,0.0424 0.22427,0.24851 0.4243,0.40005 0.20003,0.15154 0.44246,0.24851 0.71524,0.32125 0.27277,0.0727 0.57582,0.12123 0.89708,0.0485 0.32125,-0.0727 0.66069,-0.2667 0.97588,-0.53946 0.31519,-0.27276 0.60613,-0.62431 0.89101,-1.07891 0.28489,-0.45461 0.5637,-1.01225 0.81828,-1.59414 0.25457,-0.58189 0.4849,-1.18802 0.65462,-1.76385 0.16972,-0.57583 0.27882,-1.12134 0.35156,-1.7093 0.0727,-0.58795 0.10911,-1.21832 0.12729,-1.77596 0.0182,-0.55765 0.0182,-1.04255 -0.0242,-1.55777 -0.0424,-0.51523 -0.1273,-1.06073 -0.22428,-1.49715 -0.097,-0.43641 -0.20609,-0.76372 -0.35156,-1.2062 -0.14548,-0.44249 -0.32731,-1.00012 -0.51522,-1.5214 -0.1879,-0.52128 -0.38186,-1.00617 -0.55764,-1.41834 -0.17578,-0.41217 -0.33337,-0.7516 -0.60008,-1.36987 -0.2667,-0.61827 -0.64249,-1.51533 -0.89706,-2.10328 -0.25457,-0.58795 -0.38792,-0.86677 -0.66069,-1.31532 -0.27277,-0.44855 -0.68494,-1.06678 -1.12742,-1.64261 -0.44248,-0.57583 -0.91526,-1.10922 -1.41229,-1.66687 -0.49704,-0.55765 -1.01829,-1.13952 -1.43047,-1.63049 -0.41217,-0.49097 -0.71523,-0.89102 -0.89101,-1.15166 -0.17577,-0.26063 -0.22427,-0.38187 -0.24851,-0.44247 -0.0242,-0.0606 -0.0242,-0.0606 0.0303,-0.21217 z"
         id="path8"
         transform="matrix(2.1013163,0,0,2.0896131,-1216.8677,-350.75229)"
         inkscape:original-d="m 619.71062,207.62488 c 0.10909,-0.30307 0.2182,-0.60614 0.32729,-0.90921 0.25458,-0.097 0.50916,-0.19396 0.76375,-0.29094 0.27881,-0.0242 0.55763,-0.0485 0.83645,-0.0727 0.20608,0.0242 0.41217,0.0485 0.61825,0.0727 0.53343,0.097 1.0668,0.19396 1.6002,0.29094 0.56978,-0.0242 1.13954,-0.0485 1.70929,-0.0727 0.90921,-0.0606 1.8184,-0.12123 2.72762,-0.18184 0.55763,-0.10911 1.11527,-0.21821 1.6729,-0.32731 0.84863,-0.14548 1.6972,-0.29095 2.54577,-0.43642 0.60616,-0.13335 1.21227,-0.2667 1.8184,-0.40005 0.52129,-0.0485 1.04254,-0.097 1.56382,-0.14547 0.50917,0 1.0183,0 1.52747,0 0.47278,0.10911 0.94557,0.21821 1.41835,0.32731 0.27882,0.097 0.55764,0.19397 0.83645,0.29095 0.44855,0.27883 0.89707,0.55764 1.34562,0.83646 0.2667,0.1576 0.5334,0.31519 0.8001,0.47279 0.3637,0.24245 0.72737,0.4849 1.09104,0.72736 0.18185,0.36368 0.36367,0.72735 0.54552,1.09103 0.13335,0.36369 0.2667,0.72737 0.40005,1.09105 0.16973,0.63039 0.33943,1.26075 0.50916,1.89113 0.0122,0.52129 0.0243,1.04255 0.0363,1.56382 -0.0243,1.20017 -0.0485,2.40029 -0.0727,3.60044 -0.15759,0.86072 -0.3152,1.72141 -0.47278,2.58212 -0.21821,0.84861 -0.43641,1.69718 -0.65464,2.54576 -0.2667,0.87285 -0.53337,1.74567 -0.80007,2.6185 -0.41219,1.07894 -0.82436,2.15783 -1.23653,3.23675 -0.46067,0.92134 -0.92131,1.84265 -1.38197,2.76397 -0.49705,0.95771 -0.99407,1.91538 -1.49109,2.87307 -0.50916,0.83648 -1.0183,1.67293 -1.52746,2.50939 -0.61828,0.66676 -1.23651,1.33349 -1.85476,2.00024 -0.55766,0.49704 -1.1153,0.99406 -1.67293,1.49109 -0.88498,0.44855 -1.76991,0.89708 -2.65486,1.34561 -0.61828,0.0485 -1.23653,0.097 -1.85478,0.14548 -0.49705,-0.10911 -0.99407,-0.21821 -1.49109,-0.32732 -0.30308,-0.13335 -0.60613,-0.26669 -0.90918,-0.40004 -0.27885,-0.26671 -0.55767,-0.5334 -0.83648,-0.8001 -0.23032,-0.24246 -0.46067,-0.48491 -0.69099,-0.72736 -0.2667,-0.4243 -0.5334,-0.84859 -0.8001,-1.27288 -0.2182,-0.49704 -0.4364,-0.99406 -0.65463,-1.49109 -0.13335,-0.32732 -0.26668,-0.65462 -0.40003,-0.98193 -0.0364,-0.16972 -0.0728,-0.33944 -0.10911,-0.50915 -0.0122,-0.18185 -0.0243,-0.36369 -0.0364,-0.54553 -0.0243,-0.12122 -0.0485,-0.24245 -0.0727,-0.36368 0.15761,0.20609 0.31519,0.41217 0.47278,0.61826 0.24246,0.097 0.4849,0.19396 0.72737,0.29095 0.30308,0.0485 0.60613,0.097 0.90921,0.14547 0.33943,-0.19397 0.67887,-0.38793 1.0183,-0.58189 0.29094,-0.35156 0.58187,-0.70312 0.87284,-1.05467 0.27881,-0.55766 0.55763,-1.11529 0.83645,-1.67293 0.23032,-0.60615 0.46067,-1.21227 0.69099,-1.8184 0.10911,-0.54553 0.2182,-1.09104 0.32731,-1.63656 0.0364,-0.63039 0.0727,-1.26076 0.10912,-1.89114 0,-0.48491 0,-0.96981 0,-1.45471 -0.0849,-0.54554 -0.16973,-1.09105 -0.25459,-1.63656 -0.10911,-0.32732 -0.2182,-0.65463 -0.32731,-0.98194 -0.18185,-0.55766 -0.36367,-1.11529 -0.54552,-1.67293 -0.19397,-0.48492 -0.38793,-0.96981 -0.5819,-1.45472 -0.15758,-0.33944 -0.31517,-0.67887 -0.47278,-1.0183 -0.37582,-0.8971 -0.7516,-1.79416 -1.12739,-2.69123 -0.13335,-0.27883 -0.2667,-0.55765 -0.40005,-0.83647 -0.4122,-0.61827 -0.82436,-1.23651 -1.23653,-1.85476 -0.47279,-0.53341 -0.94557,-1.0668 -1.41835,-1.6002 -0.52129,-0.5819 -1.04254,-1.16377 -1.56382,-1.74566 -0.30306,-0.40006 -0.60614,-0.8001 -0.90919,-1.20014 -0.0485,-0.12123 -0.097,-0.24246 -0.14547,-0.36368 z"
         inkscape:path-effect="#path-effect8"
         sodipodi:nodetypes="sccccccccccccccccccccccccccccccccccccccccccccccccccccccccccccccccss" /><path
         style="fill:#000000;fill-opacity:1;stroke-width:2.15434"
         d="m 92.707583,139.23717 c -2.92352,-3.71244 -0.62596,-13.19746 4.64815,-19.18919 2.808847,-3.191 2.777307,-4.46139 -0.27013,-10.87842 -1.94681,-4.09942 -1.94681,-4.09942 -6.71909,-4.49517 -8.59326,-0.71257 -15.66812,-3.01523 -19.219003,-6.255198 -5.352425,-4.88378 -3.337497,-13.12388 3.209141,-13.12388 5.620188,0 16.326612,7.05295 20.684142,13.62588 1.38345,2.086798 1.38345,2.086798 5.658447,1.776978 19.03397,-1.379458 34.6228,-11.701558 26.65562,-17.649908 -2.51299,-1.87621 -8.21108,-1.91079 -17.59763,-0.10686 -11.730807,2.25456 -20.235267,1.9766 -25.488267,-0.83302 -6.624623,-3.54325 -8.489007,-7.21155 -9.17652,-18.05531 -0.61963,-9.77344 -2.535588,-12.91104 -8.855956,-14.502512 -2.381187,-0.599595 -2.631026,-0.816816 -2.475418,-2.152289 0.2038,-1.748739 2.167585,-2.267395 8.787815,-2.321038 5.376187,-0.04352 9.436609,0.778017 13.695949,2.771208 3.50556,1.640462 3.50556,1.640462 3.74984,-9.274328 0.33299,-14.879069 2.95305,-25.404743 6.44497,-25.891602 1.73997,-0.242578 7.071197,4.524256 10.095827,9.027033 4.07275,6.063205 5.27881,10.568997 5.27881,19.72167 0,7.50187 0,7.50187 2.56499,5.519192 7.95101,-6.14591 20.24449,-8.928751 30.21008,-6.838571 2.79139,0.585462 3.15455,0.827157 3.31345,2.205156 0.14951,1.296522 -0.0816,1.603407 -1.425,1.891377 -14.61963,3.134084 -24.7832,12.501054 -28.42926,26.201074 -1.09089,4.09897 -1.35213,4.56002 -2.58393,4.56002 -1.2495,0 -1.36712,-0.22619 -1.33386,-2.56502 0.1312,-9.22984 8.26825,-21.34977 17.91856,-26.689525 4.27502,-2.365461 4.27502,-2.365461 2.07729,-2.373001 -7.04026,-0.02413 -14.42933,3.609848 -21.05389,10.354446 -6.95717,7.0832 -8.03665,6.59548 -5.90255,-2.66696 1.89676,-8.232339 1.00073,-18.486804 -2.16047,-24.725113 -1.51266,-2.985091 -7.004657,-9.353522 -7.697197,-8.92552 -0.83015,0.513055 -2.8728,8.651187 -3.43883,13.700583 -0.65966,5.884417 -0.70191,14.655427 -0.0995,20.66346 0.62613,6.24531 -1.25068,7.90081 -4.09109,3.60866 -1.97358,-2.98231 -7.47884,-5.723248 -12.389623,-6.168549 -3.576283,-0.324271 -3.576283,-0.324271 -2.094359,1.618619 2.347666,3.07794 2.834007,4.89874 3.30977,12.39148 0.371882,5.85677 0.695915,7.54317 1.93664,10.07912 3.656122,7.47287 13.388652,9.44872 29.088809,5.90549 14.56544,-3.28715 23.65506,-0.38949 23.65506,7.54097 0,7.9344 -13.18912,15.708638 -29.51359,17.396608 -1.9682,0.20358 -3.687637,0.54655 -3.820987,0.76233 -0.18226,0.29499 2.765497,8.39745 3.501027,9.62311 0.0664,0.11052 1.48369,-0.44138 3.1496,-1.22665 4.55414,-2.14675 12.73131,-4.10703 14.42345,-3.45769 1.39405,0.53494 1.07829,2.99401 -0.42203,3.28678 -5.55666,1.08432 -9.57141,2.27666 -12.71078,3.77494 -3.67676,1.75475 -3.67676,1.75475 -3.68519,5.28814 -0.0151,6.44459 -2.88051,15.19328 -5.777337,17.64093 -1.79058,1.51294 -4.17592,1.27127 -5.6259,-0.57 z m 4.27448,-3.70501 c 1.01357,-1.43246 2.89844,-7.53255 3.358007,-10.86763 0.42628,-3.09373 -0.606837,-2.46482 -2.942197,1.79111 -2.99134,5.45131 -3.34719,13.21933 -0.41581,9.07652 z m -5.40283,-35.07652 c 0,-1.362938 -8.91753,-8.688358 -12.624368,-10.370398 -7.973368,-3.61807 -10.569041,2.7384 -2.943167,7.20747 4.102975,2.40449 15.567535,4.733818 15.567535,3.162928 z"
         id="path3"
         sodipodi:nodetypes="ssssssssssssssssssssssssssssssssssssssssssssssssscsssssssssss" /></g><g
       id="g3"
       inkscape:label="Slogan"><path
         style="fill:#81905c;fill-opacity:1;fill-rule:evenodd;stroke:none;stroke-width:0.264583;stroke-dasharray:none;stroke-dashoffset:0;stroke-opacity:1"
         d="m 608.64638,265.24838 c 0.0839,0.17669 0.25176,0.53004 0.49911,0.83482 0.24736,0.30477 0.5742,0.56094 0.85689,0.76413 0.2827,0.20319 0.52119,0.35335 0.82156,0.49912 0.30037,0.14576 0.66253,0.28709 0.94827,0.3768 0.28573,0.0897 0.49496,0.12778 0.75054,0.16104 0.25558,0.0332 0.55747,0.0617 0.82544,0.0901 0.26797,0.0284 0.50204,0.0569 0.90019,0.0755 0.39814,0.0186 0.96033,0.0273 1.40222,0.0262 0.4419,-0.001 0.76344,-0.012 1.35848,-0.0251 0.59503,-0.0131 1.46348,-0.0284 2.17772,-0.0601 0.71424,-0.0317 1.27423,-0.0798 2.12849,-0.14437 0.85426,-0.0645 2.00271,-0.14547 3.1151,-0.1936 1.11239,-0.0481 2.18866,-0.0635 3.28026,-0.0711 1.09161,-0.008 2.19849,-0.008 3.08992,0 0.89144,0.008 1.5674,0.023 2.17992,0.0635 0.61253,0.0405 1.16159,0.1061 1.94037,0.18704 0.77877,0.0809 1.78723,0.17719 2.78586,0.28876 0.99863,0.11157 1.98738,0.23844 2.636,0.315 0.64863,0.0765 0.95705,0.10279 1.57615,0.12904 0.6191,0.0263 1.54879,0.0525 2.36039,0.0514 0.8116,-0.001 1.50502,-0.0295 1.9666,-0.07 0.46157,-0.0405 0.69129,-0.093 0.9352,-0.16517 0.24391,-0.0722 0.50202,-0.16405 0.75798,-0.31828 0.25596,-0.15423 0.50971,-0.37079 0.85097,-0.69347 0.34127,-0.32267 0.77001,-0.75141 1.03362,-1.09268 0.2636,-0.34126 0.36203,-0.595 0.41892,-0.85314 0.0569,-0.25814 0.0722,-0.52064 0.0667,-0.78424 -0.005,-0.2636 -0.0317,-0.5283 -0.10502,-0.7569 -0.0733,-0.22861 -0.19361,-0.42111 -0.33799,-0.57971 -0.14437,-0.1586 -0.31283,-0.28329 -0.58736,-0.46923 -0.27453,-0.18594 -0.65516,-0.43313 -0.94503,-0.61033 -0.28986,-0.1772 -0.48891,-0.28439 -0.70767,-0.38283 -0.21875,-0.0984 -0.45719,-0.18813 -0.69782,-0.28219 -0.24064,-0.0941 -0.48346,-0.19251 -0.68253,-0.25813 -0.19907,-0.0656 -0.35438,-0.0984 -0.6169,-0.16951 -0.26252,-0.0711 -0.6322,-0.18046 -0.95597,-0.27672 -0.32376,-0.0962 -0.60158,-0.17938 -0.86409,-0.25048 -0.26252,-0.0711 -0.50971,-0.13016 -0.75581,-0.18594 -0.2461,-0.0558 -0.4911,-0.10828 -0.75799,-0.15641 -0.26688,-0.0481 -0.55562,-0.0919 -1.06861,-0.16625 -0.51299,-0.0744 -1.2502,-0.17939 -1.78069,-0.25376 -0.53048,-0.0744 -0.85423,-0.11813 -1.17909,-0.14875 -0.32485,-0.0306 -0.65079,-0.0481 -1.31582,-0.0897 -0.66503,-0.0416 -1.6691,-0.10719 -2.35819,-0.14657 -0.6891,-0.0394 -1.06317,-0.0525 -1.72054,-0.0886 -0.65737,-0.0361 -1.59799,-0.0952 -2.22692,-0.12797 -0.62893,-0.0328 -0.94613,-0.0394 -1.73694,-0.0492 -0.79082,-0.01 -2.05521,-0.023 -3.1665,-0.0263 -1.11129,-0.003 -2.06942,0.003 -2.94665,0.012 -0.87723,0.009 -1.67346,0.0197 -2.40084,0.0284 -0.72738,0.009 -1.38582,0.0153 -1.9524,0.0514 -0.56658,0.0361 -1.04127,0.10172 -1.47442,0.15969 -0.43315,0.058 -0.82471,0.10829 -1.19879,0.16298 -0.37409,0.0547 -0.73063,0.11375 -1.15284,0.21876 -0.42221,0.105 -0.91002,0.25594 -1.26113,0.37079 -0.35111,0.11484 -0.56549,0.1936 -0.88378,0.32595 -0.31829,0.13235 -0.74049,0.31829 -1.06753,0.48892 -0.32704,0.17063 -0.55892,0.32594 -0.7558,0.46048 -0.19688,0.13453 -0.35877,0.24829 -0.56877,0.4222 -0.21001,0.17391 -0.46814,0.40797 -0.65299,0.62454 -0.18485,0.21658 -0.2964,0.41564 -0.39047,0.62894 -0.0941,0.21329 -0.17063,0.44079 -0.24938,0.66063 -0.0788,0.21985 -0.15969,0.43205 -0.19735,0.6461 -0.0376,0.21406 -0.032,0.42992 -0.0292,0.53787 0.003,0.10795 0.003,0.10798 0.0869,0.28466 z"
         id="path25"
         inkscape:path-effect="#path-effect25"
         inkscape:original-d="m 608.56246,265.0717 c 0.16782,0.35338 0.33567,0.70673 0.50352,1.06008 0.32687,0.25619 0.65371,0.51236 0.98058,0.76856 0.23852,0.15018 0.47701,0.30035 0.71554,0.45053 0.36221,0.14134 0.72437,0.28268 1.08659,0.42402 0.20925,0.0381 0.41849,0.0761 0.62775,0.11422 0.30189,0.0284 0.60378,0.0569 0.90564,0.0853 0.23408,0.0284 0.46815,0.0569 0.7022,0.0853 0.56224,0.009 1.12443,0.0175 1.68662,0.0262 0.3216,-0.0109 0.64314,-0.022 0.96472,-0.0328 0.86849,-0.0154 1.73694,-0.0306 2.6054,-0.0459 0.56002,-0.0481 1.12001,-0.0963 1.68003,-0.14439 1.1485,-0.0809 2.29695,-0.16187 3.44543,-0.2428 1.0763,-0.0153 2.15257,-0.0306 3.22884,-0.046 1.10694,0 2.21382,0 3.32073,0 0.67596,0.0153 1.35192,0.0306 2.02788,0.046 0.54909,0.0656 1.09815,0.13126 1.64721,0.19687 1.00849,0.0963 2.01695,0.19251 3.02541,0.28877 0.9888,0.12687 1.97755,0.25373 2.96635,0.38063 0.30845,0.0262 0.61687,0.0525 0.92533,0.0787 0.92974,0.0262 1.85943,0.0525 2.78915,0.0788 0.69348,-0.0284 1.3869,-0.0569 2.08037,-0.0853 0.22968,-0.0525 0.4594,-0.10499 0.68908,-0.15751 0.25813,-0.0919 0.51625,-0.18375 0.77441,-0.27562 0.25376,-0.21658 0.5075,-0.43315 0.76126,-0.64971 0.42878,-0.42878 0.85751,-0.85754 1.2863,-1.2863 0.0984,-0.25376 0.19687,-0.50749 0.2953,-0.76125 0.0153,-0.26252 0.0306,-0.52502 0.046,-0.78754 -0.0262,-0.26469 -0.0525,-0.52938 -0.0788,-0.79408 -0.12031,-0.19251 -0.24064,-0.38501 -0.36095,-0.57752 -0.16843,-0.12469 -0.33689,-0.24938 -0.50532,-0.37407 -0.38063,-0.2472 -0.76126,-0.49439 -1.14192,-0.74159 -0.19907,-0.10719 -0.39812,-0.21438 -0.59719,-0.32157 -0.23844,-0.0897 -0.47688,-0.17938 -0.71533,-0.26907 -0.24283,-0.0984 -0.48564,-0.19688 -0.72847,-0.29532 -0.15531,-0.0328 -0.31062,-0.0656 -0.46594,-0.0984 -0.36972,-0.10938 -0.7394,-0.21876 -1.1091,-0.32813 -0.27784,-0.0831 -0.55565,-0.16626 -0.83347,-0.24939 -0.2472,-0.0591 -0.4944,-0.11812 -0.74157,-0.17719 -0.24503,-0.0525 -0.49003,-0.105 -0.73504,-0.1575 -0.28877,-0.0437 -0.5775,-0.0875 -0.86627,-0.13126 -0.73721,-0.105 -1.47442,-0.21 -2.21163,-0.31501 -0.32377,-0.0437 -0.64751,-0.0875 -0.97128,-0.13125 -0.32594,-0.0175 -0.65188,-0.035 -0.97782,-0.0525 -1.00412,-0.0656 -2.00819,-0.13126 -3.01228,-0.19688 -0.3741,-0.0131 -0.74817,-0.0263 -1.12223,-0.0394 -0.94068,-0.0591 -1.8813,-0.11813 -2.82194,-0.17719 -0.31721,-0.007 -0.63442,-0.0131 -0.9516,-0.0197 -1.26445,-0.0131 -2.52884,-0.0262 -3.79326,-0.0394 -0.95816,0.007 -1.91629,0.0131 -2.87446,0.0197 -0.79629,0.0109 -1.59252,0.0219 -2.38881,0.0328 -0.65847,0.007 -1.31691,0.0131 -1.97536,0.0197 -0.47471,0.0656 -0.9494,0.13126 -1.42412,0.19688 -0.39158,0.0503 -0.78314,0.10063 -1.17472,0.15095 -0.35658,0.0591 -0.71313,0.11812 -1.06971,0.17719 -0.48784,0.15094 -0.97565,0.30188 -1.46349,0.45282 -0.21436,0.0788 -0.42876,0.15751 -0.64312,0.23626 -0.42222,0.18595 -0.84442,0.37189 -1.26662,0.55783 -0.23188,0.15532 -0.46376,0.31063 -0.69564,0.46595 -0.16187,0.11376 -0.32377,0.22751 -0.48564,0.34126 -0.25813,0.23408 -0.51626,0.46814 -0.77441,0.70221 -0.11155,0.19907 -0.22312,0.39813 -0.33467,0.5972 -0.0766,0.22751 -0.15314,0.45502 -0.22971,0.68252 -0.0809,0.2122 -0.16187,0.42439 -0.24281,0.63658 0.006,0.21591 0.0114,0.43178 0.0169,0.64768 z"
         transform="matrix(2.3431722,0,0,1.7662753,-1369.0386,-279.06591)"
         sodipodi:nodetypes="cccccccccccccccccccccccccccccccccccccccccccccccccccccccccccccccccc" /><text
         xml:space="preserve"
         transform="matrix(0.26458333,0,0,0.26458333,4.3008059,-39.85229)"
         id="text28"
         style="font-style:normal;font-variant:normal;font-weight:normal;font-stretch:normal;font-size:28px;font-family:Poppins;-inkscape-font-specification:'Poppins, Normal';font-variant-ligatures:normal;font-variant-caps:normal;font-variant-numeric:normal;font-variant-east-asian:normal;text-align:center;writing-mode:lr-tb;direction:ltr;white-space:pre;shape-inside:url(#rect28);shape-padding:4.06307;display:inline;fill:#81905c;fill-opacity:1;fill-rule:evenodd;stroke:none;stroke-width:1;stroke-dasharray:none;stroke-dashoffset:0;stroke-opacity:1"
         x="118.91602"
         y="0"><tspan
           x="263.83039"
           y="865.86133"
           id="tspan5"><tspan
             style="fill:#000000"
             id="tspan4">Sweet Techology</tspan></tspan></text></g><text
       xml:space="preserve"
       transform="matrix(0.26458333,0,0,0.26458333,1.3437752,4.3000807)"
       id="text1"
       style="font-style:normal;font-variant:normal;font-weight:500;font-stretch:normal;font-size:28px;font-family:Poppins;-inkscape-font-specification:'Poppins, Medium';font-variant-ligatures:normal;font-variant-caps:normal;font-variant-numeric:normal;font-variant-east-asian:normal;text-align:center;writing-mode:lr-tb;direction:ltr;white-space:pre;shape-inside:url(#rect1);display:inline;fill:#000000;fill-rule:evenodd"
       x="0"
       y="0"
       inkscape:label="title"><tspan
         x="293.51898"
         y="620.33945"
         id="tspan7"><tspan
           style="font-weight:normal;font-size:48px;font-family:'Pink Chicken';-inkscape-font-specification:'Pink Chicken, Normal'"
           id="tspan6">nanasi.dev</tspan></tspan></text></g><metadata
     id="metadata28"><rdf:RDF><cc:Work
         rdf:about=""><dc:title>Nanasi Logo</dc:title><dc:date>Saturday, January 11, 2025</dc:date><dc:creator><cc:Agent><dc:title>Erick Muuo</dc:title></cc:Agent></dc:creator><dc:rights><cc:Agent><dc:title>(C) 2024 All rights reserved</dc:title></cc:Agent></dc:rights><dc:publisher><cc:Agent><dc:title>Erick Muuo</dc:title></cc:Agent></dc:publisher></cc:Work></rdf:RDF></metadata></svg>
